<svg xmlns="http://www.w3.org/2000/svg" xml:space="preserve" data-id="lg_vraelmYef9X8dBRUKZ" data-version="1" viewBox="467 -2.5 566 214"><g data-padding="20"><g transform="translate(10 3.725)scale(.96435)"><rect width="557.315" height="149.16" x="88.447" y="-369.898" fill="none" rx="0" ry="0" transform="translate(401.85 429.87)"/><path fill="#1e1e1e" d="M496.824 175.512v-92.4h18.22l14.12 55.3h.27v-55.3h12.93v92.4h-14.91l-17.43-67.46h-.26v67.46Zm56.37 0v-92.4h14.52v92.4Zm25.34 0v-92.4h14.52v37.62h15.58v-37.62h14.52v92.4h-14.52v-41.58h-15.58v41.58Zm76.43 1.33q-10.69 0-16.37-6.08-5.67-6.07-5.67-17.16v-48.57q0-11.09 5.67-17.16 5.68-6.07 16.37-6.07t16.37 6.07q5.67 6.07 5.67 17.16v48.57q0 11.09-5.67 17.16-5.68 6.08-16.37 6.08m0-13.2q7.52 0 7.52-9.11v-50.43q0-9.1-7.52-9.1t-7.52 9.1v50.43q0 9.11 7.52 9.11m31.81 11.87v-92.4h18.22l14.12 55.3h.27v-55.3h12.93v92.4h-14.91l-17.43-67.46h-.26v67.46Zm77.49 0v-92.4h18.21l14.13 55.3h.26v-55.3h12.94v92.4h-14.92l-17.42-67.46h-.27v67.46Zm77.35 1.33q-10.69 0-16.37-6.08-5.68-6.07-5.68-17.16v-48.57q0-11.09 5.68-17.16t16.37-6.07 16.37 6.07q5.67 6.07 5.67 17.16v48.57q0 11.09-5.67 17.16-5.68 6.08-16.37 6.08m0-13.2q7.52 0 7.52-9.11v-50.43q0-9.1-7.52-9.1-7.53 0-7.53 9.1v50.43q0 9.11 7.53 9.11m31.81 11.87v-92.4h20.72l9.24 66.13h.27l9.24-66.13h20.72v92.4h-13.73v-69.96h-.26l-10.56 69.96h-12.14l-10.56-69.96h-.27v69.96Zm67.19 0 15.05-92.4h19.66l15.05 92.4h-14.52l-2.64-18.35v.26h-16.5l-2.64 18.09Zm17.82-30.63h13.07l-6.47-45.67h-.27Zm38.94 30.63v-92.4h22.17q10.83 0 16.24 5.8 5.41 5.81 5.41 17.03v46.73q0 11.22-5.41 17.03t-16.24 5.81Zm14.52-13.2h7.39q3.56 0 5.48-2.12 1.91-2.11 1.91-6.86v-48.05q0-4.75-1.91-6.86-1.92-2.11-5.48-2.11h-7.39Z"/><g stroke="#3d9970" stroke-width="5" transform="matrix(.93 0 0 .93 397.68 319.55)"><path d="M96.152-317.546H693.32"/>undefined
        undefined</g><rect width="100" height="47.16" x="344.736" y="-341.126" fill="#fff" rx="0" ry="0" transform="matrix(.93 0 0 .93 401.1 319.3)"/><path fill="#3d9970" d="m792.418 7.988-15.834 16.124 15.834 16.124-8.236 8.12-15.718-15.95-15.66 15.95-8.294-8.12 15.834-16.124L744.51 7.988l8.294-8.12 15.66 15.95 15.718-15.95Z"/></g><path fill="transparent" stroke="transparent" d="M469.5 0h561v209h-561z"/></g></svg>